PathFileType	4	(X/Y/Z)	39_1_16_p1_0-263_filt_butterworth.trc
DataRate	CameraRate	NumFrames	NumMarkers	Units	OrigDataRate	OrigDataStartFrame	OrigNumFrames
41.0	41.0	6	27	m	41.0	98	263
Frame#	Time	RHip			RKnee			RAnkle			RBigToe			RSmallToe			RHeel			LHip			LKnee			LAnkle			LBigToe			LSmallToe			LHeel			Neck			Head			Nose			RShoulder			RElbow			RWrist			RThumb			RIndex			RPinky			LShoulder			LElbow			LWrist			LThumb			LIndex			LPinky			
		X1	Y1	Z1	X2	Y2	Z2	X3	Y3	Z3	X4	Y4	Z4	X5	Y5	Z5	X6	Y6	Z6	X7	Y7	Z7	X8	Y8	Z8	X9	Y9	Z9	X10	Y10	Z10	X11	Y11	Z11	X12	Y12	Z12	X13	Y13	Z13	X14	Y14	Z14	X15	Y15	Z15	X16	Y16	Z16	X17	Y17	Z17	X18	Y18	Z18	X19	Y19	Z19	X20	Y20	Z20	X21	Y21	Z21	X22	Y22	Z22	X23	Y23	Z23	X24	Y24	Z24	X25	Y25	Z25	X26	Y26	Z26	X27	Y27	Z27	
98	2.3902439024390243	0.3041376210945761	0.6546288782900546	0.4947096752583505	0.24572508270352894	0.7166413452734908	0.9151471178586281	0.23021447508880655	0.8113635249007529	1.3107984862881896	0.20751910624253575	0.6374922810390273	1.3400112096070416	0.27594402276742813	0.6863920637139649	1.3621383705613352	0.20001812610990027	0.9343268388537631	1.3942610535064908	0.07123073033304837	0.6724887889454129	0.4787020492707119	0.04860053631024709	0.7516589892760088	0.9004384429602064	0.028645377108639077	0.8322988646000861	1.2965786330045161	0.05820932834966828	0.6391386219796487	1.3197347413284244	0.0007193885987470491	0.6949351799962709	1.3406106763274657	0.03576846089901255	0.8613095486732678	1.3420809115307146	0.23368894637904258	0.6278902336982832	-0.06260083568990694	0.25671367566732306	0.535522829202691	-0.2924656255828456	0.24715059058729427	0.48653483285233695	-0.16327857688471042	0.397828297029617	0.640484627059641	0.034215006935690115	0.41885798502768157	0.6935554396410535	0.3060798407160984	0.40982554102809304	0.5839004189182267	0.5497175403471327	0.34725918249357635	0.62028890935413	0.6894852325608976	0.36368707172925585	0.621744246290903	0.7059641666898995	0.41193178241912914	0.5924294466279618	0.6873598567884843	0.07294266845212384	0.6400472071107655	0.00790609385563003	-0.016105976175018685	0.6450326492705287	0.2765921115647961	-0.01382445101116079	0.592587383480439	0.5246563760847356	0.012984996883830119	0.6098583341828044	0.631452216014695	-0.004524612723126507	0.59719103783199	0.6464218068712835	-0.05255388409382791	0.6173014207921611	0.6450181357969075
99	2.414634146341464	0.30414222300529775	0.654684503781462	0.49470350827266824	0.24568144794484592	0.7170036693396685	0.9132322742082988	0.22971655345381947	0.8121066898397478	1.311157821581511	0.20750283368040506	0.6373710134001873	1.3400177804555389	0.275901768761962	0.686180542862729	1.3620677723729442	0.19996775041020548	0.9339228145835794	1.3960016512945836	0.07124630616651845	0.672247502278539	0.47974820297925547	0.048688102882155505	0.7515869191682422	0.9003674459855062	0.028623118612584833	0.8323102539629356	1.2966375812081874	0.05833790729885332	0.6397926087988537	1.321852942424708	0.0009259924190536975	0.6939516824822829	1.3403651577591085	0.035956103313160126	0.8623414012978978	1.3434601028369513	0.23379654310300785	0.6278259044547182	-0.06352831857096226	0.256726333914179	0.5354892518436254	-0.29249698760119824	0.24729729850843074	0.48645527234778363	-0.1648653239885186	0.39943524202364067	0.6462842762102453	0.03448095333399137	0.41887026304681063	0.6935758403265393	0.30609066956408804	0.4095015065944672	0.5839322207787637	0.5496663013757553	0.3470749480893626	0.6202407292990668	0.68932780850323	0.3634673800905379	0.6215656851611807	0.7058151027001709	0.41191146170664433	0.5909101163348808	0.6867862596618179	0.07265338312682226	0.6444463515813248	0.008069207208522618	-0.01610945147760239	0.6450444900023107	0.2766053397829753	-0.017137114717713585	0.5955569061407407	0.5252417349139824	0.01228255480000455	0.6084239327749289	0.6315112858296438	-0.008186645830860052	0.6037127564916015	0.6491041131694117	-0.05567688624977356	0.6168208215915314	0.6468995414660254
100	2.4390243902439024	0.3041496733660386	0.6546480611992691	0.4947363893071145	0.24567723659758733	0.7172426985703755	0.9120055251068206	0.22967290425105372	0.8121859265341743	1.3112013418503063	0.20762914303899827	0.6379898193008058	1.3403245954149587	0.27597834072085553	0.6861596332365223	1.3620810339080682	0.20023473279310533	0.9335545475007739	1.397137757361083	0.07127193310688501	0.6722303081720062	0.47970191447390675	0.04876224557882229	0.7515014922672422	0.9001625461514486	0.028597498496876487	0.8323136361099587	1.29678737919687	0.058527692473211636	0.6407101055177835	1.323715658086602	0.0010206755366916859	0.693443294977694	1.3404432373818786	0.03607982254854284	0.8631603591550273	1.3437636198771292	0.2339696596507882	0.627756569050186	-0.06504356560389293	0.2567394428507783	0.5354668596861649	-0.2924952343108276	0.24736125678130258	0.4862360926963425	-0.16581400229739424	0.40044565440529345	0.6497486786789024	0.03463424606261415	0.41890353781637907	0.6935495909910976	0.30625707893641685	0.40960957027380784	0.5839513533696663	0.549608189041936	0.34705832842340734	0.61980137429265	0.6892093182559893	0.3633868750126295	0.6172266558024911	0.7047477352803273	0.4118726265538803	0.5924495702961516	0.6868587563695285	0.07224898453034546	0.6506497624952908	0.008128639247319033	-0.016108138771567856	0.6451873621474818	0.27663385962749926	-0.02086170697527081	0.6004718612733181	0.5262273709612934	0.012099569501293858	0.6084771085072879	0.6316213057710863	-0.0119529405329413	0.6080635482704829	0.6521965468787068	-0.057942475610555544	0.6170805996431843	0.6485314517294093
101	2.463414634146341	0.3041587040683199	0.6546007514968616	0.4947324611389686	0.24569177775535128	0.7173025985301629	0.9119952856303641	0.22973850630155435	0.8121591414048891	1.3111923021863672	0.2076140119217802	0.6377860863086059	1.3402582343971905	0.2762648800690106	0.6866684622060807	1.362379004087348	0.20011395705096197	0.9327673704292576	1.3970390424724757	0.07131366011163916	0.6722514500764304	0.4794347421398832	0.048801353190787426	0.7516330803510826	0.9005849091423235	0.02857375471677883	0.8323118985248256	1.296994955005518	0.05863541221621773	0.640784781197498	1.3218123407209732	0.0009358723477143277	0.693720022354976	1.3420859249264074	0.036084898006113766	0.8636423603892069	1.343925990977648	0.23407651128347096	0.6277264580272268	-0.06594288040552745	0.2567475472538889	0.5354360498070228	-0.2924820843763765	0.24733234947964722	0.4860981426452604	-0.16584690584867356	0.4004676225252396	0.6498079091899365	0.03462708938456607	0.41895462921464804	0.6934605396410636	0.306205201477447	0.41167992348892324	0.5833520300395663	0.5494149594048411	0.34806280492775277	0.6200529927518728	0.6891690667825061	0.3648914883494952	0.6101939705456931	0.7030780366502363	0.4117278165527226	0.6006465694738876	0.6896652644987301	0.07205351141134306	0.6539865255782789	0.008092879820136572	-0.016114898114239634	0.6452041155722859	0.2766197626980977	-0.02482260002713893	0.6096162151758935	0.5280538047292048	0.011069781736180059	0.6085606470231519	0.6315671043808816	-0.013696349613326681	0.608048106109743	0.6538319156162035	-0.05900755453761895	0.6172857944468941	0.6473692001693048
102	2.4878048780487805	0.30416777778108023	0.6545457484297417	0.4947253159679316	0.24571172157313598	0.717320547957729	0.9123911187928598	0.2298206209759049	0.8120313651340776	1.3111699936145782	0.20682686225714017	0.6336597790427574	1.338420597845417	0.2758460731230459	0.6860421875598655	1.362199849354488	0.2000826381769273	0.9330209834075415	1.3968587435970559	0.07134349085709575	0.6722889700565037	0.4793819479733841	0.048868390007068274	0.7522206821789807	0.9022937630703771	0.02856636898593918	0.8323229303035997	1.2971179231594028	0.0586357397819678	0.6403482531782184	1.319450806638102	0.0007789747488388813	0.6942713601754178	1.3440620712621727	0.03606656118338571	0.8637879130624554	1.3441211474922832	0.2340858574376997	0.6277154729411387	-0.06595112146301176	0.25675089891244723	0.5353916324375129	-0.2924923331067725	0.24722992809541125	0.4859685036742046	-0.1656939773777615	0.40010007490604427	0.6490648859991024	0.0345808571333298	0.4189994305811891	0.6934195061765889	0.3051114363960009	0.41509309490642865	0.5822376341734555	0.5491529911052906	0.3498117424039562	0.6235420508672815	0.6891644100575665	0.36740162698836143	0.6059717433327021	0.7020743237214531	0.41163463767885355	0.6066955649820753	0.693244795961202	0.07203229364936424	0.6544114309927997	0.008126141350983966	-0.016138418162273994	0.6446752625327895	0.27652378094070007	-0.02933277812457081	0.6193779365500945	0.5299643758870364	0.009253410313191202	0.6080814452508269	0.6313552939294537	-0.013594225573308093	0.606953750480202	0.6536495300978088	-0.05972215140027033	0.6171847636295609	0.6438198581352768
103	2.5121951219512195	0.30418317718588594	0.6544944814118119	0.49471493605475936	0.24578066595038586	0.7172542248670681	0.912048701388305	0.22992287652174903	0.8115080648664391	1.3109828035004427	0.20548566583530092	0.6270198287441098	1.3353644369329056	0.2736545347744774	0.6812252296221538	1.3600751862010476	0.2010266971694426	0.9380610418749493	1.397770148924499	0.07135020696791705	0.6723846099543856	0.4794699162764403	0.04895461163045428	0.7526545148028105	0.9030234515614037	0.02859806836914148	0.8323629541967192	1.2970481035079493	0.05860842739065465	0.6405335562571148	1.3214845813078426	0.0006913360460769957	0.6946508461180041	1.3428882603306256	0.03610727738231978	0.8635704194874808	1.344136115494404	0.2340612660241401	0.6277601204932606	-0.06574495477493707	0.2567464380690362	0.5353569364472246	-0.2925134235440391	0.2472100591657514	0.48614190121541184	-0.16569082210328148	0.40013897036131973	0.6490140255564221	0.03457580047207809	0.4189714691416598	0.6936500939502339	0.3033131656230451	0.4171263122387714	0.5815169345826042	0.5491081868473685	0.3508726238491586	0.6292828631863039	0.6891136816055716	0.36888624064026865	0.6058986336144367	0.7020121511542046	0.4117563587992613	0.6016949445606286	0.6920932343026331	0.07184977804790232	0.654845002504371	0.008208046155281992	-0.016158840212063364	0.6450553397289334	0.2766203962167523	-0.03356090275354099	0.6267848637207114	0.531379327541319	0.008098194935281081	0.6077709707520936	0.6311646214726725	-0.01478402269539937	0.6105342383144402	0.6532993696558281	-0.06010075198835971	0.6168523058616686	0.641420998565166
